<svg id="Capa_1" data-name="Capa 1" xmlns="http://www.w3.org/2000/svg" viewBox="0 0 271.21 308.11"><defs><style>.cls-1{opacity:0.75;}.cls-2{stroke:#fff;stroke-miterlimit:10;}.cls-3{opacity:0.9;}</style></defs><g class="cls-1"><path class="cls-2" d="M192.92,130.69a44.79,44.79,0,0,1,9,1.71c4.67,1.61,8,4.08,10.07,7.4a20.92,20.92,0,0,1,2.78,7.82h38.91a51.13,51.13,0,0,0-2.34-14.51,45.33,45.33,0,0,0-7-13.56c-6.19-8.27-16.06-14.4-29.28-18.2a87,87,0,0,0-16.45-3c-6.19-.59-13.67-.9-22.28-.9H121.65L114.9,130.1h64A139,139,0,0,1,192.92,130.69Z" transform="translate(-114.28 -96.94)"/><path class="cls-2" d="M277.9,134.76h42.39c7.75,0,13.76,1.77,18,5.32a16.94,16.94,0,0,1,5.22,7.54h38.72a53.91,53.91,0,0,0-6.93-24.16A45.64,45.64,0,0,0,354.5,105q-13.68-6.41-33-6.38H240.68l16.15,34.26.91,1.87,6.06,12.86h14.1Z" transform="translate(-114.28 -96.94)"/></g><g class="cls-1"><polygon class="cls-2" points="56.4 257.44 82.35 307.61 124.99 307.61 97.88 257.44 56.4 257.44"/><path class="cls-2" d="M340.21,361.58q-7.05,6.21-19.92,6.22h-2.8l16.78,35.57a70.72,70.72,0,0,0,22.62-5.82A46.13,46.13,0,0,0,377.81,379q6.19-10.5,7.05-24.63H345.37A19.53,19.53,0,0,1,340.21,361.58Z" transform="translate(-114.28 -96.94)"/></g><g class="cls-3"><path class="cls-2" d="M253.65,201.36a75.47,75.47,0,0,1-3.4,22.87,55.94,55.94,0,0,1-10.75,19.38,67.48,67.48,0,0,1-18.7,14.93,100.86,100.86,0,0,1-26.08,9.65l44.56,82.47H196.64l-35.95-69.5-20.42-40h13.61c6.56,0,12.52-.23,17.69-.65a74.34,74.34,0,0,0,13.87-2.42c9.17-2.5,16.48-6.61,21.74-12.2S215,213,215,204.17a22.38,22.38,0,0,0-3.09-11.87c-2-3.32-5.4-5.79-10.07-7.4a44.79,44.79,0,0,0-9-1.71,139,139,0,0,0-14-.59h-64l6.75-32.66h54.62c8.61,0,16.09.31,22.28.9a87,87,0,0,1,16.45,3c13.22,3.8,23.09,9.93,29.28,18.2a45.33,45.33,0,0,1,7,13.56A51.42,51.42,0,0,1,253.65,201.36Z" transform="translate(-114.28 -96.94)"/><path class="cls-2" d="M385,295.44v.41q0,17.08-7.19,29.26a46.13,46.13,0,0,1-20.92,18.54,70.72,70.72,0,0,1-22.62,5.82L317.49,313.9h2.8q12.88,0,19.92-6.22t7-17.43v-.44A25,25,0,0,0,344.1,277a20,20,0,0,0-9.24-8.13,34.68,34.68,0,0,0-14.57-2.8H294.9l-17-36v-.09h42.39c7.75,0,13.76-2,18-5.88s6.38-9.46,6.38-16.56c0-6.38-2.14-11.36-6.38-14.91s-10.24-5.32-18-5.32H277.9v42.67h0l-20.13-42.67-.91-1.87-16.15-34.26h80.86q19.27,0,33,6.38A45.64,45.64,0,0,1,375.29,176q7.09,12.09,7.09,29.07a44.57,44.57,0,0,1-4.57,20.57,38.25,38.25,0,0,1-13.32,14.73,54.44,54.44,0,0,1-21.07,7.78,53.23,53.23,0,0,1,22.5,8,40.67,40.67,0,0,1,14.22,16.22C383.38,279,385,286.67,385,295.44Z" transform="translate(-114.28 -96.94)"/></g></svg>